<svg xmlns="http://www.w3.org/2000/svg" version="1.1" xmlns:xlink="http://www.w3.org/1999/xlink" xmlns:svgjs="http://svgjs.dev/svgjs" width="765" height="625" viewBox="0 0 479.71201171875 300" class="svg-animations " style="background-color: rgb(255, 255, 255);"><svg viewBox="0 0 115.07437896728516 136.65289306640625" width="100" height="100" x="339.7360107421875" y="100" style="fill: rgb(17, 17, 17);"><svg width="118" height="135" viewBox="-2 -2 121 138" xmlns="http://www.w3.org/2000/svg">
<path d="M118 59.0292C118 26.4827 91.5304 0 59 0C26.4696 0 0 26.4827 0 59.0292C0 85.7842 17.8855 108.431 42.3266 115.645V133.144C42.3266 134.171 43.1553 135 44.182 135C45.2086 135 46.0373 134.171 46.0373 133.144V116.598C49.6243 117.403 53.335 117.885 57.1447 118.009V133.144C57.1447 134.171 57.9734 135 59 135C60.0266 135 60.8553 134.171 60.8553 133.144V118.009C64.6526 117.885 68.3633 117.415 71.9627 116.598V133.131C71.9627 134.158 72.7914 134.988 73.818 134.988C74.8447 134.988 75.6734 134.158 75.6734 133.131V115.645C100.102 108.418 118 85.7842 118 59.0292ZM56.8849 33.3633C61.1275 33.3633 67.918 33.982 71.9751 35.5289C68.5736 37.2491 63.3291 40.3552 60.2122 44.439C55.079 39.9221 49.983 36.7912 46.8166 35.0463C50.3417 33.7098 54.9182 33.3633 56.8849 33.3633ZM62.8715 73.8422C61.5975 59.0169 47.3608 51.1463 43.9222 49.4633V37.7193C49.6367 40.776 67.0027 51.2453 72.0369 68.0383C72.0987 68.2239 72.1853 68.3972 72.2843 68.5457C70.7753 70.7856 68.0046 73.075 62.8715 73.8422ZM74.0778 62.8036C71.4061 56.5418 67.2872 51.2577 62.9457 46.9759C65.6792 43.1891 70.9361 40.182 74.0778 38.6227V62.8036ZM43.9222 53.6832C48.3998 56.2572 58.1589 63.0883 59.1608 74.1145C59.099 74.1145 59.0495 74.1145 59 74.1145C44.2191 74.1145 43.9346 63.6947 43.9222 63.2615V53.6832ZM75.6734 111.772V100.201C95.909 91.6005 92.5323 75.1169 92.4952 74.956C92.2849 73.9784 91.3325 73.3596 90.343 73.5329C82.4763 75.0055 76.9474 78.3344 73.9046 83.4453C70.1939 89.67 71.4184 96.5134 71.9627 98.741V112.811C68.388 113.678 64.665 114.185 60.8553 114.309V77.8023C60.9419 77.8147 61.0285 77.827 61.1151 77.827C61.3501 77.827 61.5604 77.7775 61.7706 77.7033C77.5906 76.342 77.7885 63.41 77.7885 63.2615V35.7393C77.7885 35.6898 77.7761 35.6403 77.7761 35.5908C77.7761 35.5289 77.7637 35.4547 77.7514 35.3928C77.739 35.3185 77.7143 35.2567 77.6895 35.1948C77.6771 35.1453 77.6648 35.0958 77.6524 35.0587V35.0463C77.6277 34.972 77.5782 34.9102 77.5411 34.8359C77.5163 34.7988 77.504 34.7493 77.4792 34.7122C77.4669 34.6874 77.4421 34.675 77.4298 34.6503C77.3679 34.576 77.3184 34.4894 77.2442 34.4275C72.6059 29.7869 58.4805 29.6507 56.8849 29.6507C56.4149 29.6507 45.4807 29.7002 40.7558 34.4275C40.4094 34.774 40.2115 35.2443 40.2115 35.7393V63.2615C40.2115 63.3977 40.4218 76.837 57.1447 77.7652V114.296C53.335 114.173 49.6243 113.653 46.0373 112.799V98.7286C46.5939 96.5011 47.8184 89.6576 44.0954 83.4329C41.0526 78.3344 35.5237 74.9931 27.657 73.5205C26.6675 73.3349 25.7151 73.966 25.5048 74.9436C25.4677 75.1169 22.0786 91.5881 42.3266 100.189V111.76C19.9635 104.681 3.71069 83.7176 3.71069 59.0292C3.71069 28.5246 28.5105 3.71253 59 3.71253C89.4895 3.71253 114.289 28.5246 114.289 59.0292C114.289 83.7176 98.0365 104.681 75.6734 111.772ZM75.426 96.2535C75.3642 96.1422 75.3023 96.0432 75.2157 95.9566C74.8694 93.3702 74.8075 89.1255 77.0958 85.314C79.3222 81.5891 83.3421 79.0027 89.0442 77.6043C89.1803 81.4529 87.9681 90.4125 75.426 96.2535ZM42.7719 95.9442C42.6977 96.0432 42.6235 96.1422 42.5616 96.2412C30.0195 90.4125 28.8197 81.4529 28.9434 77.5919C34.6455 78.9903 38.6654 81.5767 40.8918 85.3016C43.1801 89.1131 43.1182 93.3578 42.7719 95.9442Z"/>
</svg></svg><svg x="49.97600097656249" y="127.18000030517578" style="fill: rgb(17, 17, 17);"><path d="M22.20 17.56Q24.96 18.16 26.46 19.94Q27.96 21.72 27.96 24.52L27.96 24.52Q27.96 28.12 25.30 30.06Q22.64 32 17.44 32L17.44 32L4.56 32L4.56 4L16.64 4Q21.32 4 23.90 5.88Q26.48 7.76 26.48 11.20L26.48 11.20Q26.48 13.52 25.34 15.14Q24.20 16.76 22.20 17.56L22.20 17.56ZM16.44 6.44L7.52 6.44L7.52 16.60L16.44 16.60Q19.84 16.60 21.68 15.30Q23.52 14 23.52 11.52L23.52 11.52Q23.52 9.04 21.68 7.74Q19.84 6.44 16.44 6.44L16.44 6.44ZM17.40 29.56Q21.16 29.56 23.08 28.28Q25 27 25 24.28L25 24.28Q25 19.04 17.40 19.04L17.40 19.04L7.52 19.04L7.52 29.56L17.40 29.56ZM50.24 10.96L53.08 10.96L53.08 32L50.36 32L50.36 28.16Q49.24 30.08 47.28 31.14Q45.32 32.20 42.80 32.20L42.80 32.20Q38.68 32.20 36.30 29.90Q33.92 27.60 33.92 23.16L33.92 23.16L33.92 10.96L36.76 10.96L36.76 22.88Q36.76 26.20 38.40 27.92Q40.04 29.64 43.08 29.64L43.08 29.64Q46.40 29.64 48.32 27.62Q50.24 25.60 50.24 22L50.24 22L50.24 10.96ZM75.92 10.96L78.72 10.96L68.20 34.52Q66.92 37.48 65.24 38.72Q63.56 39.96 61.20 39.96L61.20 39.96Q59.68 39.96 58.36 39.48Q57.04 39 56.08 38.04L56.08 38.04L57.40 35.92Q59 37.52 61.24 37.52L61.24 37.52Q62.68 37.52 63.70 36.72Q64.72 35.92 65.60 34L65.60 34L66.52 31.96L57.12 10.96L60.08 10.96L68 28.84L75.92 10.96ZM100.56 10.80Q104.68 10.80 106.88 12.86Q109.08 14.92 109.08 18.96L109.08 18.96L109.08 32L106.36 32L106.36 28.72Q105.40 30.36 103.54 31.28Q101.68 32.20 99.12 32.20L99.12 32.20Q95.60 32.20 93.52 30.52Q91.44 28.84 91.44 26.08L91.44 26.08Q91.44 23.40 93.38 21.76Q95.32 20.12 99.56 20.12L99.56 20.12L106.24 20.12L106.24 18.84Q106.24 16.12 104.72 14.70Q103.20 13.28 100.28 13.28L100.28 13.28Q98.28 13.28 96.44 13.94Q94.60 14.60 93.28 15.76L93.28 15.76L92 13.64Q93.60 12.28 95.84 11.54Q98.08 10.80 100.56 10.80L100.56 10.80ZM99.56 29.96Q101.96 29.96 103.68 28.86Q105.40 27.76 106.24 25.68L106.24 25.68L106.24 22.24L99.64 22.24Q94.24 22.24 94.24 26L94.24 26Q94.24 27.84 95.64 28.90Q97.04 29.96 99.56 29.96L99.56 29.96ZM127.52 10.80Q131.48 10.80 133.82 13.10Q136.16 15.40 136.16 19.80L136.16 19.80L136.16 32L133.32 32L133.32 20.08Q133.32 16.80 131.68 15.08Q130.04 13.36 127 13.36L127 13.36Q123.60 13.36 121.62 15.38Q119.64 17.40 119.64 20.96L119.64 20.96L119.64 32L116.80 32L116.80 10.96L119.52 10.96L119.52 14.84Q120.68 12.92 122.74 11.86Q124.80 10.80 127.52 10.80L127.52 10.80ZM160.32 2.32L163.16 2.32L163.16 32L160.44 32L160.44 27.84Q159.16 29.96 157.06 31.08Q154.96 32.20 152.32 32.20L152.32 32.20Q149.36 32.20 146.96 30.84Q144.56 29.48 143.20 27.04Q141.84 24.60 141.84 21.48L141.84 21.48Q141.84 18.36 143.20 15.92Q144.56 13.48 146.96 12.14Q149.36 10.80 152.32 10.80L152.32 10.80Q154.88 10.80 156.94 11.86Q159.00 12.92 160.32 14.96L160.32 14.96L160.32 2.32ZM152.56 29.68Q154.76 29.68 156.54 28.66Q158.32 27.64 159.34 25.76Q160.36 23.88 160.36 21.48L160.36 21.48Q160.36 19.08 159.34 17.20Q158.32 15.32 156.54 14.30Q154.76 13.28 152.56 13.28L152.56 13.28Q150.32 13.28 148.54 14.30Q146.76 15.32 145.74 17.20Q144.72 19.08 144.72 21.48L144.72 21.48Q144.72 23.88 145.74 25.76Q146.76 27.64 148.54 28.66Q150.32 29.68 152.56 29.68L152.56 29.68ZM194.32 32.24Q190.16 32.24 186.82 30.40Q183.48 28.56 181.58 25.30Q179.68 22.04 179.68 18L179.68 18Q179.68 13.96 181.58 10.70Q183.48 7.44 186.84 5.60Q190.20 3.76 194.36 3.76L194.36 3.76Q197.48 3.76 200.12 4.80Q202.76 5.84 204.60 7.84L204.60 7.84L202.72 9.72Q199.44 6.40 194.44 6.40L194.44 6.40Q191.12 6.40 188.40 7.92Q185.68 9.44 184.14 12.08Q182.60 14.72 182.60 18L182.60 18Q182.60 21.28 184.14 23.92Q185.68 26.56 188.40 28.08Q191.12 29.60 194.44 29.60L194.44 29.60Q199.48 29.60 202.72 26.24L202.72 26.24L204.60 28.12Q202.76 30.12 200.10 31.18Q197.44 32.24 194.32 32.24L194.32 32.24ZM218.00 32.20Q214.96 32.20 212.52 30.82Q210.08 29.44 208.68 27Q207.28 24.56 207.28 21.48L207.28 21.48Q207.28 18.40 208.68 15.96Q210.08 13.52 212.52 12.16Q214.96 10.80 218.00 10.80L218.00 10.80Q221.04 10.80 223.48 12.16Q225.92 13.52 227.30 15.96Q228.68 18.40 228.68 21.48L228.68 21.48Q228.68 24.56 227.30 27Q225.92 29.44 223.48 30.82Q221.04 32.20 218.00 32.20L218.00 32.20ZM218.00 29.68Q220.24 29.68 222.02 28.66Q223.80 27.64 224.80 25.76Q225.80 23.88 225.80 21.48L225.80 21.48Q225.80 19.08 224.80 17.20Q223.80 15.32 222.02 14.30Q220.24 13.28 218.00 13.28L218.00 13.28Q215.76 13.28 213.98 14.30Q212.20 15.32 211.18 17.20Q210.16 19.08 210.16 21.48L210.16 21.48Q210.16 23.88 211.18 25.76Q212.20 27.64 213.98 28.66Q215.76 29.68 218.00 29.68L218.00 29.68ZM243.08 32.20Q240.04 32.20 237.60 30.82Q235.16 29.44 233.76 27Q232.36 24.56 232.36 21.48L232.36 21.48Q232.36 18.40 233.76 15.96Q235.16 13.52 237.60 12.16Q240.04 10.80 243.08 10.80L243.08 10.80Q246.12 10.80 248.56 12.16Q251.00 13.52 252.38 15.96Q253.76 18.40 253.76 21.48L253.76 21.48Q253.76 24.56 252.38 27Q251.00 29.44 248.56 30.82Q246.12 32.20 243.08 32.20L243.08 32.20ZM243.08 29.68Q245.32 29.68 247.10 28.66Q248.88 27.64 249.88 25.76Q250.88 23.88 250.88 21.48L250.88 21.48Q250.88 19.08 249.88 17.20Q248.88 15.32 247.10 14.30Q245.32 13.28 243.08 13.28L243.08 13.28Q240.84 13.28 239.06 14.30Q237.28 15.32 236.26 17.20Q235.24 19.08 235.24 21.48L235.24 21.48Q235.24 23.88 236.26 25.76Q237.28 27.64 239.06 28.66Q240.84 29.68 243.08 29.68L243.08 29.68ZM275.84 32L267.36 21.44L262.40 26L262.40 32L259.56 32L259.56 2.32L262.40 2.32L262.40 22.44L274.96 10.96L278.48 10.96L269.48 19.56L279.32 32L275.84 32Z"/></svg><svg x="130.9159080505371" y="172.81999969482422" style="fill: rgb(17, 17, 17);"><path d="M4.62 22.00L4.62 22.00Q3.54 22.00 2.67 21.48Q1.80 20.96 1.19 20.06Q0.58 19.16 0.27 17.95Q-0.04 16.73 0 15.36L0 15.36Q0.04 14.07 0.33 12.56Q0.62 11.06 1.16 9.55Q1.70 8.03 2.46 6.62Q3.22 5.22 4.21 4.14Q5.20 3.07 6.40 2.41Q7.61 1.76 9.04 1.76L9.04 1.76Q9.93 1.76 10.54 2.11Q11.15 2.47 11.53 3.05Q11.90 3.63 12.05 4.36Q12.20 5.09 12.18 5.84L12.18 5.84Q12.14 6.55 11.98 7.21Q11.82 7.88 11.53 8.41Q11.24 8.93 10.82 9.25Q10.40 9.56 9.86 9.56L9.86 9.56Q9.60 9.54 9.37 9.38L9.37 9.38Q9.15 9.26 8.93 9.00Q8.70 8.74 8.51 8.25L8.51 8.25Q9.09 8.01 9.42 7.42Q9.75 6.83 9.93 6.18L9.93 6.18Q10.12 5.45 10.18 4.55L10.18 4.55Q10.23 3.67 9.82 3.26Q9.41 2.85 8.89 2.85L8.89 2.85Q7.88 2.85 6.77 3.91Q5.65 4.96 4.69 6.75Q3.74 8.55 3.08 10.93Q2.43 13.32 2.32 15.98L2.32 15.98Q2.28 17.18 2.48 18.02Q2.69 18.86 3.06 19.40Q3.44 19.93 3.91 20.17Q4.38 20.41 4.86 20.41L4.86 20.41Q5.61 20.41 6.27 20.08Q6.94 19.76 7.49 19.29Q8.04 18.82 8.43 18.31Q8.83 17.81 9.04 17.42L9.04 17.42Q9.20 17.14 9.37 17.08Q9.54 17.01 9.67 17.11Q9.80 17.21 9.84 17.41Q9.88 17.61 9.75 17.89L9.75 17.89Q9.39 18.62 8.86 19.35Q8.34 20.08 7.68 20.67Q7.03 21.27 6.25 21.63Q5.48 22.00 4.62 22.00ZM18.43 14.58L18.43 14.58Q18.22 15.40 17.85 16.11Q17.49 16.82 16.98 17.33Q16.48 17.85 15.84 18.14Q15.21 18.43 14.46 18.43L14.46 18.43Q13.58 18.43 13.07 18.05Q12.57 17.68 12.32 17.12Q12.07 16.56 12.02 15.89Q11.97 15.23 11.97 14.65L11.97 14.65Q11.97 14.24 12.06 13.75Q12.16 13.25 12.33 12.74Q12.50 12.22 12.77 11.71Q13.04 11.19 13.41 10.76L13.41 10.76Q13.54 10.39 13.80 10.12Q14.07 9.84 14.43 9.65Q14.78 9.47 15.19 9.37Q15.60 9.28 15.98 9.28L15.98 9.28Q16.05 9.28 16.10 9.30Q16.16 9.32 16.22 9.34L16.22 9.34Q16.50 9.36 16.92 9.56Q17.34 9.75 17.74 10.14Q18.13 10.52 18.41 11.11Q18.69 11.71 18.69 12.54L18.69 12.54Q18.69 12.71 18.67 12.96Q18.65 13.21 18.63 13.38L18.63 13.38Q19.12 13.19 19.66 12.91Q20.20 12.63 20.70 12.32Q21.21 12.01 21.63 11.68Q22.06 11.36 22.32 11.10L22.32 11.10Q22.54 10.91 22.69 10.89Q22.84 10.87 22.90 10.97Q22.97 11.08 22.92 11.28Q22.88 11.47 22.69 11.71L22.69 11.71Q22.58 11.83 22.14 12.22Q21.70 12.61 21.10 13.06Q20.50 13.51 19.79 13.94Q19.08 14.37 18.43 14.58ZM14.80 11.32L14.80 11.32Q14.74 11.51 14.74 11.73L14.74 11.73Q14.74 12.07 14.78 12.45Q14.82 12.82 15.00 13.12Q15.17 13.42 15.54 13.63Q15.92 13.83 16.59 13.83L16.59 13.83Q16.69 13.83 16.80 13.82Q16.91 13.81 17.02 13.79L17.02 13.79Q17.08 13.51 17.13 13.28Q17.19 13.06 17.19 12.89L17.19 12.89Q17.23 12.48 17.19 12.05Q17.14 11.62 17.03 11.26Q16.91 10.91 16.73 10.68Q16.54 10.46 16.29 10.46L16.29 10.46Q15.88 10.46 15.50 10.68Q15.13 10.91 14.80 11.32ZM13.43 15.10L13.43 15.10Q13.43 15.49 13.47 15.86Q13.51 16.24 13.64 16.53Q13.77 16.82 13.99 17.00Q14.20 17.18 14.54 17.18L14.54 17.18Q14.93 17.18 15.25 17.00Q15.58 16.82 15.83 16.53Q16.09 16.24 16.30 15.86Q16.50 15.49 16.65 15.08L16.65 15.08Q16.50 15.10 16.36 15.11Q16.22 15.12 16.05 15.12L16.05 15.12Q15.23 15.12 14.64 14.64Q14.05 14.15 13.73 13.40L13.73 13.40Q13.60 13.85 13.51 14.28Q13.43 14.71 13.43 15.10ZM27.09 14.58L27.09 14.58Q26.88 15.40 26.51 16.11Q26.15 16.82 25.64 17.33Q25.14 17.85 24.50 18.14Q23.87 18.43 23.12 18.43L23.12 18.43Q22.24 18.43 21.73 18.05Q21.23 17.68 20.98 17.12Q20.73 16.56 20.68 15.89Q20.63 15.23 20.63 14.65L20.63 14.65Q20.63 14.24 20.72 13.75Q20.82 13.25 20.99 12.74Q21.16 12.22 21.43 11.71Q21.70 11.19 22.06 10.76L22.06 10.76Q22.19 10.39 22.46 10.12Q22.73 9.84 23.08 9.65Q23.44 9.47 23.85 9.37Q24.26 9.28 24.64 9.28L24.64 9.28Q24.71 9.28 24.76 9.30Q24.81 9.32 24.88 9.34L24.88 9.34Q25.16 9.36 25.58 9.56Q26.00 9.75 26.39 10.14Q26.79 10.52 27.07 11.11Q27.35 11.71 27.35 12.54L27.35 12.54Q27.35 12.71 27.33 12.96Q27.31 13.21 27.29 13.38L27.29 13.38Q27.78 13.19 28.32 12.91Q28.85 12.63 29.36 12.32Q29.86 12.01 30.29 11.68Q30.72 11.36 30.98 11.10L30.98 11.10Q31.20 10.91 31.35 10.89Q31.50 10.87 31.56 10.97Q31.63 11.08 31.58 11.28Q31.54 11.47 31.35 11.71L31.35 11.71Q31.24 11.83 30.80 12.22Q30.36 12.61 29.76 13.06Q29.15 13.51 28.45 13.94Q27.74 14.37 27.09 14.58ZM23.46 11.32L23.46 11.32Q23.40 11.51 23.40 11.73L23.40 11.73Q23.40 12.07 23.44 12.45Q23.48 12.82 23.65 13.12Q23.83 13.42 24.20 13.63Q24.58 13.83 25.24 13.83L25.24 13.83Q25.35 13.83 25.46 13.82Q25.57 13.81 25.67 13.79L25.67 13.79Q25.74 13.51 25.79 13.28Q25.85 13.06 25.85 12.89L25.85 12.89Q25.89 12.48 25.85 12.05Q25.80 11.62 25.68 11.26Q25.57 10.91 25.38 10.68Q25.20 10.46 24.94 10.46L24.94 10.46Q24.54 10.46 24.16 10.68Q23.78 10.91 23.46 11.32ZM22.09 15.10L22.09 15.10Q22.09 15.49 22.13 15.86Q22.17 16.24 22.30 16.53Q22.43 16.82 22.64 17.00Q22.86 17.18 23.20 17.18L23.20 17.18Q23.59 17.18 23.91 17.00Q24.23 16.82 24.49 16.53Q24.75 16.24 24.95 15.86Q25.16 15.49 25.31 15.08L25.31 15.08Q25.16 15.10 25.02 15.11Q24.88 15.12 24.71 15.12L24.71 15.12Q23.89 15.12 23.30 14.64Q22.71 14.15 22.39 13.40L22.39 13.40Q22.26 13.85 22.17 14.28Q22.09 14.71 22.09 15.10ZM40.41 13.72L40.41 13.72Q39.92 14.54 39.28 15.41Q38.65 16.28 37.94 17.00Q37.23 17.72 36.48 18.19Q35.73 18.67 34.98 18.67L34.98 18.67Q34.22 18.67 33.89 18.16Q33.56 17.66 33.58 17.03L33.58 17.03Q33.58 16.75 33.63 16.54Q33.69 16.32 33.75 16.15Q33.82 15.98 33.89 15.80Q33.97 15.62 34.03 15.38L34.03 15.38Q34.12 15.10 34.04 14.87Q33.97 14.65 33.86 14.48L33.86 14.48Q33.67 14.69 33.42 14.85Q33.17 15.01 32.81 15.01L32.81 15.01Q32.55 15.01 32.33 14.77Q32.12 14.52 32.12 14.15L32.12 14.15Q32.12 13.85 32.26 13.66Q32.40 13.47 32.58 13.36Q32.76 13.25 32.96 13.21Q33.15 13.17 33.28 13.17L33.28 13.17Q33.34 13.17 33.55 13.19Q33.75 13.21 33.99 13.25L33.99 13.25Q34.76 12.63 35.09 12.12Q35.43 11.62 35.15 11.21L35.15 11.21Q34.98 10.93 34.72 10.92Q34.46 10.91 34.18 11.05Q33.90 11.19 33.63 11.40Q33.37 11.62 33.15 11.81L33.15 11.81Q32.72 12.24 32.19 12.83Q31.67 13.42 31.32 13.81L31.32 13.81Q31.17 14.46 31.02 15.16L31.02 15.16Q30.89 15.79 30.73 16.57Q30.57 17.36 30.40 18.19L30.40 18.19Q30.27 18.26 30.13 18.29Q29.99 18.32 29.88 18.34L29.88 18.34Q29.76 18.37 29.63 18.37L29.63 18.37Q29.46 18.37 29.30 18.35Q29.15 18.34 29.06 18.25Q28.96 18.15 28.95 17.94Q28.94 17.72 29.07 17.33L29.07 17.33Q29.24 16.78 29.50 15.84Q29.76 14.91 30.04 13.79Q30.31 12.67 30.60 11.46Q30.89 10.24 31.15 9.14Q31.41 8.03 31.59 7.14Q31.78 6.25 31.86 5.73L31.86 5.73Q31.93 5.17 31.99 4.66L31.99 4.66Q32.03 4.23 32.04 3.81Q32.05 3.39 31.99 3.18L31.99 3.18Q32.10 3.07 32.29 2.98Q32.48 2.90 32.72 2.85L32.72 2.85Q32.96 2.79 33.28 2.75L33.28 2.75Q33.64 2.70 33.89 2.72Q34.14 2.75 34.25 2.94L34.25 2.94Q34.38 3.15 34.30 3.66Q34.22 4.16 33.99 5.07L33.99 5.07Q33.69 6.23 33.38 7.18Q33.06 8.14 32.77 8.98Q32.48 9.81 32.22 10.60Q31.95 11.38 31.73 12.20L31.73 12.20Q32.16 11.58 32.81 10.88Q33.45 10.18 34.27 9.73L34.27 9.73Q35.13 9.28 35.69 9.28L35.69 9.28Q36.37 9.28 36.67 9.74Q36.97 10.20 36.95 10.82L36.95 10.82Q36.93 11.32 36.71 11.74Q36.48 12.16 36.16 12.51Q35.84 12.87 35.47 13.12Q35.11 13.38 34.85 13.55L34.85 13.55Q35.15 13.72 35.37 14.01Q35.60 14.30 35.58 14.73L35.58 14.73Q35.56 15.31 35.35 15.75Q35.15 16.20 35.15 16.56L35.15 16.56Q35.17 16.84 35.27 16.97Q35.36 17.10 35.69 17.10L35.69 17.10Q36.27 17.10 36.90 16.60Q37.53 16.11 38.09 15.46Q38.65 14.82 39.12 14.19Q39.60 13.55 39.85 13.25L39.85 13.25Q40.22 12.87 40.47 13.05Q40.71 13.23 40.41 13.72ZM43.81 5.35L43.81 5.35Q43.74 5.58 43.56 5.81Q43.38 6.03 43.15 6.17Q42.93 6.31 42.69 6.36Q42.45 6.40 42.30 6.27L42.30 6.27Q41.85 5.93 41.83 5.53Q41.81 5.13 42.02 4.78Q42.24 4.42 42.56 4.17Q42.88 3.93 43.12 3.88L43.12 3.88Q43.36 3.84 43.52 3.98Q43.68 4.12 43.76 4.35Q43.85 4.57 43.86 4.85Q43.87 5.13 43.81 5.35ZM40.84 9.92L40.84 9.92Q40.95 9.79 41.25 9.71Q41.55 9.62 41.87 9.57Q42.20 9.51 42.46 9.50Q42.73 9.49 42.78 9.51L42.78 9.51Q42.80 9.54 42.67 9.96Q42.54 10.39 42.35 10.97Q42.15 11.55 41.94 12.17Q41.72 12.78 41.62 13.17L41.62 13.17Q41.51 13.55 41.36 14.04Q41.21 14.52 41.09 14.98Q40.97 15.44 40.93 15.85Q40.88 16.26 40.99 16.47L40.99 16.47Q41.10 16.73 41.23 16.83Q41.36 16.93 41.51 16.93L41.51 16.93Q41.94 16.93 42.59 16.45Q43.25 15.98 43.92 15.33Q44.60 14.67 45.18 13.99Q45.76 13.32 46.04 12.91L46.04 12.91Q46.21 12.69 46.40 12.63Q46.58 12.56 46.70 12.65Q46.81 12.74 46.83 12.93Q46.84 13.12 46.69 13.38L46.69 13.38Q46.34 13.98 45.68 14.81Q45.01 15.64 44.26 16.40Q43.51 17.16 42.79 17.70Q42.07 18.24 41.62 18.26L41.62 18.26Q41.25 18.28 40.90 18.14Q40.54 18 40.25 17.75Q39.96 17.51 39.77 17.17Q39.57 16.84 39.55 16.47L39.55 16.47Q39.49 15.94 39.55 15.00Q39.62 14.07 39.79 13.09Q39.96 12.11 40.23 11.23Q40.50 10.35 40.84 9.92ZM51.50 18.54L51.50 18.54Q51.00 18.54 50.65 18.35Q50.29 18.17 50.08 17.87Q49.87 17.57 49.80 17.17Q49.74 16.78 49.84 16.32L49.84 16.32Q49.91 16.02 50.06 15.52Q50.21 15.01 50.37 14.42Q50.53 13.83 50.67 13.24Q50.81 12.65 50.85 12.17Q50.90 11.68 50.81 11.37Q50.72 11.06 50.45 11.06L50.45 11.06Q50.10 11.06 49.74 11.29Q49.37 11.51 49.00 11.90Q48.62 12.29 48.24 12.79Q47.87 13.29 47.50 13.83L47.50 13.83Q47.31 14.56 47.18 15.11Q47.05 15.66 46.95 16.10Q46.86 16.54 46.77 16.87Q46.69 17.21 46.62 17.51L46.62 17.51Q46.56 17.72 46.23 17.92Q45.91 18.13 45.55 18.26Q45.18 18.39 44.91 18.39Q44.64 18.39 44.69 18.19L44.69 18.19Q44.71 18.06 44.83 17.61Q44.95 17.16 45.11 16.55Q45.27 15.94 45.44 15.25Q45.61 14.56 45.76 13.94L45.76 13.94Q45.87 13.45 46.00 12.84L46.00 12.84Q46.11 12.33 46.27 11.64Q46.43 10.95 46.64 10.14L46.64 10.14Q46.79 10.01 46.95 9.93Q47.12 9.86 47.29 9.81L47.29 9.81Q47.46 9.75 47.65 9.73L47.65 9.73Q47.82 9.73 48.00 9.75L48.00 9.75Q48.15 9.77 48.31 9.83Q48.47 9.88 48.60 9.99L48.60 9.99Q48.53 10.14 48.45 10.41Q48.36 10.67 48.28 10.97L48.28 10.97Q48.19 11.32 48.06 11.68L48.06 11.68Q48.34 11.30 48.69 10.90Q49.05 10.50 49.47 10.18Q49.89 9.86 50.36 9.65Q50.83 9.45 51.33 9.45L51.33 9.45Q51.73 9.45 52.06 9.69Q52.38 9.92 52.56 10.34Q52.74 10.76 52.78 11.34Q52.81 11.92 52.62 12.61L52.62 12.61L52.38 13.55Q52.27 14.00 52.11 14.62Q51.95 15.23 51.71 15.96L51.71 15.96Q51.58 16.43 51.62 16.78Q51.65 17.12 52.04 17.12L52.04 17.12Q52.42 17.12 53.01 16.65Q53.60 16.17 54.21 15.51Q54.81 14.84 55.34 14.14Q55.88 13.45 56.16 13.02L56.16 13.02Q56.35 12.74 56.53 12.65Q56.70 12.56 56.79 12.63Q56.89 12.69 56.89 12.92Q56.89 13.14 56.72 13.49L56.72 13.49Q56.57 13.79 56.26 14.28Q55.95 14.78 55.52 15.34Q55.09 15.89 54.59 16.46Q54.10 17.03 53.56 17.50Q53.02 17.96 52.50 18.25Q51.97 18.54 51.50 18.54ZM60.95 21.07L60.95 21.07Q60.84 21.59 60.68 22.36Q60.52 23.13 60.32 23.99Q60.11 24.85 59.84 25.70Q59.58 26.55 59.25 27.23Q58.93 27.90 58.54 28.33Q58.16 28.76 57.69 28.76L57.69 28.76Q56.98 28.76 56.47 28.34Q55.97 27.93 55.62 27.29Q55.28 26.66 55.12 25.93Q54.96 25.20 54.96 24.57L54.96 24.57Q54.96 23.71 55.11 23.15Q55.26 22.58 55.63 22.06Q56.01 21.54 56.65 20.96Q57.30 20.38 58.31 19.53L58.31 19.53Q58.80 19.10 59.25 18.71Q59.71 18.32 60.11 18L60.11 18Q60.22 17.57 60.32 17.19Q60.41 16.82 60.48 16.52L60.48 16.52Q59.92 17.27 59.14 17.79Q58.35 18.30 57.34 18.30L57.34 18.30Q56.42 18.30 55.85 17.47Q55.28 16.65 55.28 15.04L55.28 15.04Q55.28 14.24 55.58 13.21Q55.88 12.18 56.44 11.28Q57.00 10.37 57.81 9.75Q58.63 9.13 59.64 9.13L59.64 9.13Q60.11 9.13 60.46 9.36Q60.80 9.60 61.04 9.95Q61.27 10.31 61.40 10.71Q61.53 11.10 61.60 11.45L61.60 11.45Q61.64 11.32 61.66 11.18Q61.68 11.04 61.72 10.93L61.72 10.93Q61.94 10.20 62.21 9.93Q62.48 9.66 63.01 9.66L63.01 9.66Q63.31 9.66 63.52 9.77Q63.72 9.88 63.72 9.96L63.72 9.96Q63.62 10.20 63.55 10.33Q63.49 10.46 63.42 10.60Q63.36 10.74 63.29 10.95Q63.23 11.17 63.12 11.58L63.12 11.58Q63.08 11.73 62.96 12.27Q62.84 12.82 62.66 13.57Q62.48 14.33 62.27 15.23Q62.07 16.13 61.88 16.99L61.88 16.99Q62.48 16.65 63.12 16.15Q63.77 15.66 64.35 15.14Q64.93 14.63 65.38 14.17Q65.83 13.70 66.04 13.40L66.04 13.40Q66.21 13.14 66.43 13.04Q66.64 12.93 66.81 12.96Q66.97 12.99 67.00 13.16Q67.03 13.32 66.86 13.60L66.86 13.60Q66.37 14.39 65.66 15.13Q64.95 15.87 64.21 16.51Q63.46 17.14 62.77 17.62Q62.07 18.11 61.57 18.41L61.57 18.41Q61.36 19.38 61.21 19.98Q61.06 20.58 60.95 21.07ZM58.24 16.84L58.24 16.84Q58.70 16.84 59.09 16.60Q59.49 16.37 59.81 16.06Q60.13 15.74 60.35 15.42Q60.56 15.10 60.67 14.91L60.67 14.91Q60.76 14.71 60.88 14.39Q60.99 14.07 61.06 13.77Q61.12 13.47 61.11 13.23Q61.10 12.99 60.95 12.97L60.95 12.97Q60.82 12.95 60.75 12.80Q60.67 12.65 60.63 12.46Q60.59 12.26 60.58 12.07Q60.56 11.88 60.54 11.73L60.54 11.73Q60.44 10.97 60.18 10.63Q59.92 10.29 59.60 10.29L59.60 10.29Q59.06 10.29 58.58 10.72Q58.09 11.15 57.72 11.82Q57.34 12.50 57.13 13.31Q56.91 14.11 56.91 14.84L56.91 14.84Q56.91 15.74 57.17 16.29Q57.43 16.84 58.24 16.84ZM57.26 26.81L57.26 26.81Q57.69 26.81 57.95 26.17Q58.22 25.54 58.52 24.45L58.52 24.45Q58.59 24.19 58.71 23.70Q58.82 23.22 58.99 22.60Q59.15 21.97 59.32 21.25Q59.49 20.54 59.68 19.80L59.68 19.80Q59.51 19.96 59.33 20.12Q59.15 20.28 58.95 20.49L58.95 20.49Q58.48 20.94 58.04 21.36Q57.60 21.78 57.26 22.24Q56.91 22.71 56.71 23.24Q56.50 23.78 56.50 24.49L56.50 24.49Q56.50 25.20 56.56 25.65Q56.61 26.10 56.71 26.36Q56.80 26.62 56.94 26.71Q57.08 26.81 57.26 26.81ZM77.15 12.56L77.15 12.56Q76.74 12.13 76.50 11.50Q76.25 10.87 76.12 10.24L76.12 10.24Q75.97 9.54 75.90 8.74L75.90 8.74Q75.80 7.19 76.25 5.93Q76.70 4.66 77.47 3.76Q78.25 2.85 79.20 2.36Q80.16 1.87 81.06 1.87L81.06 1.87Q81.47 1.87 81.72 2.06Q81.96 2.25 82.09 2.53Q82.22 2.81 82.25 3.11Q82.29 3.41 82.29 3.61L82.29 3.61Q82.29 4.29 82.25 4.96Q82.22 5.63 82.15 6.38Q82.07 7.13 81.92 7.99Q81.77 8.85 81.53 9.90L81.53 9.90Q81.40 10.48 81.17 11.38Q80.93 12.29 80.61 13.38L80.61 13.38Q81.58 13.40 82.17 13.46Q82.76 13.51 82.93 13.53L82.93 13.53Q83.08 13.55 83.16 13.68Q83.23 13.81 83.06 14.09L83.06 14.09Q82.89 14.35 82.58 14.39Q82.26 14.43 81.96 14.43L81.96 14.43Q81.79 14.43 81.33 14.43Q80.87 14.43 80.24 14.48L80.24 14.48Q79.79 15.81 79.22 17.15Q78.65 18.49 77.97 19.58Q77.28 20.66 76.46 21.34Q75.65 22.02 74.72 22.02L74.72 22.02Q73.39 22.02 72.48 21.51Q71.56 21.01 71.00 20.33Q70.43 19.65 70.17 18.98Q69.91 18.30 69.91 17.94L69.91 17.94Q69.91 17.29 70.25 16.63Q70.60 15.96 71.34 15.37Q72.08 14.78 73.26 14.33Q74.44 13.88 76.10 13.64L76.10 13.64Q76.79 13.55 77.41 13.50Q78.03 13.45 78.59 13.40L78.59 13.40Q79.02 11.79 79.46 10.12Q79.90 8.44 80.22 7.02L80.22 7.02Q80.35 6.44 80.48 5.76Q80.61 5.09 80.68 4.49Q80.76 3.88 80.77 3.48Q80.78 3.07 80.67 3.03L80.67 3.03Q80.61 3.00 80.35 3.19Q80.09 3.37 79.75 3.71Q79.41 4.06 79.07 4.54Q78.74 5.02 78.53 5.58L78.53 5.58Q78.14 6.68 77.92 7.73L77.92 7.73Q77.75 8.63 77.71 9.64Q77.67 10.65 78.03 11.47L78.03 11.47Q77.99 11.77 77.90 11.96L77.90 11.96Q77.84 12.07 77.79 12.16L77.79 12.16Q77.73 12.22 77.64 12.31L77.64 12.31Q77.56 12.37 77.44 12.45Q77.32 12.52 77.15 12.56ZM76.89 18.56L76.89 18.56Q77.13 18.06 77.47 17.03Q77.82 16.00 78.20 14.65L78.20 14.65Q77.15 14.78 76.08 15.00Q75.00 15.23 74.13 15.60Q73.26 15.98 72.71 16.52Q72.17 17.05 72.17 17.79L72.17 17.79Q72.17 18.56 72.48 19.14Q72.79 19.72 73.23 20.11Q73.67 20.49 74.13 20.70Q74.59 20.90 74.92 20.90L74.92 20.90Q75.24 20.90 75.53 20.65Q75.82 20.41 76.07 20.05Q76.31 19.70 76.52 19.29Q76.72 18.88 76.89 18.56ZM90.21 13.90L90.21 13.90Q90.11 14.56 90.01 15.16Q89.91 15.77 89.89 16.13L89.89 16.13Q89.87 16.67 90.08 16.90Q90.30 17.14 90.56 17.14L90.56 17.14Q90.86 17.14 91.30 16.84Q91.74 16.54 92.23 16.09Q92.73 15.64 93.22 15.10Q93.71 14.56 94.13 14.08Q94.55 13.60 94.84 13.23Q95.13 12.87 95.24 12.76L95.24 12.76Q95.37 12.63 95.51 12.61Q95.65 12.59 95.73 12.65Q95.82 12.71 95.82 12.89Q95.82 13.06 95.65 13.32L95.65 13.32Q95.39 13.72 94.98 14.27Q94.57 14.82 94.08 15.40Q93.59 15.98 93.04 16.54Q92.49 17.10 91.94 17.53Q91.39 17.96 90.89 18.23Q90.38 18.49 89.98 18.49L89.98 18.49Q89.68 18.49 89.41 18.32Q89.14 18.15 88.92 17.87Q88.71 17.59 88.59 17.25Q88.47 16.90 88.49 16.56L88.49 16.56Q88.52 16.41 88.56 16.04L88.56 16.04Q87.66 17.05 86.74 17.65Q85.83 18.24 84.99 18.24L84.99 18.24Q84.69 18.24 84.35 18.09Q84.00 17.94 83.74 17.59Q83.47 17.25 83.29 16.69Q83.12 16.13 83.17 15.34L83.17 15.34Q83.23 14.09 83.66 12.97Q84.09 11.86 84.75 11.03Q85.40 10.20 86.23 9.72Q87.05 9.23 87.89 9.23L87.89 9.23Q88.26 9.23 88.56 9.42Q88.86 9.60 89.07 9.89Q89.29 10.18 89.43 10.52Q89.57 10.87 89.63 11.17L89.63 11.17Q89.78 10.54 89.91 9.94Q90.04 9.34 90.17 8.80L90.17 8.80Q90.38 8.01 90.62 7.09L90.62 7.09Q90.84 6.29 91.12 5.26Q91.39 4.23 91.74 3.09L91.74 3.09Q91.95 2.92 92.15 2.83Q92.34 2.75 92.51 2.70L92.51 2.70Q92.71 2.64 92.88 2.64L92.88 2.64Q93.09 2.64 93.26 2.69Q93.44 2.75 93.55 2.97Q93.67 3.20 93.71 3.65Q93.76 4.10 93.71 4.87L93.71 4.87Q93.67 5.82 93.38 6.94Q93.09 8.05 92.62 9.25Q92.15 10.44 91.53 11.63Q90.92 12.82 90.21 13.90ZM88.95 14.18L88.95 14.18Q89.03 13.77 89.11 13.36Q89.18 12.95 89.29 12.52L89.29 12.52Q89.25 12.54 89.21 12.56Q89.18 12.59 89.14 12.61L89.14 12.61Q88.90 12.71 88.82 12.60Q88.73 12.48 88.73 12.22L88.73 12.22Q88.73 12.09 88.71 11.76Q88.69 11.43 88.59 11.07Q88.49 10.72 88.30 10.45Q88.11 10.18 87.76 10.18L87.76 10.18Q87.27 10.18 86.75 10.68Q86.24 11.19 85.79 11.91Q85.34 12.63 85.04 13.45Q84.73 14.26 84.69 14.91L84.69 14.91Q84.65 15.94 84.95 16.39Q85.25 16.84 85.77 16.84L85.77 16.84Q86.15 16.84 86.61 16.54Q87.08 16.24 87.52 15.81Q87.96 15.38 88.33 14.93Q88.71 14.48 88.95 14.18ZM103.75 13.53L103.75 13.53Q103.10 14.48 102.29 15.37Q101.47 16.26 100.56 16.96Q99.64 17.66 98.69 18.09Q97.73 18.52 96.83 18.52L96.83 18.52Q96.36 18.52 95.81 18.29Q95.26 18.06 94.81 17.59Q94.36 17.12 94.09 16.37Q93.82 15.62 93.93 14.54L93.93 14.54Q94.02 13.66 94.48 12.68Q94.94 11.71 95.62 10.89Q96.29 10.07 97.14 9.54Q97.99 9.00 98.85 9.00L98.85 9.00Q99.67 9.00 100.03 9.41Q100.40 9.81 100.35 10.42L100.35 10.42Q100.29 11.08 99.98 11.64Q99.67 12.20 99.24 12.65Q98.81 13.10 98.32 13.47Q97.84 13.83 97.41 14.13L97.41 14.13Q96.94 14.46 96.51 14.75Q96.08 15.04 95.76 15.27L95.76 15.27Q95.78 15.81 95.95 16.17Q96.12 16.54 96.38 16.76Q96.64 16.99 96.97 17.09Q97.30 17.18 97.65 17.18L97.65 17.18Q98.38 17.18 99.17 16.72Q99.97 16.26 100.73 15.60Q101.49 14.95 102.15 14.24Q102.80 13.53 103.23 13.02L103.23 13.02Q103.38 12.84 103.54 12.81Q103.71 12.78 103.80 12.85Q103.90 12.93 103.90 13.11Q103.90 13.29 103.75 13.53ZM98.25 10.22L98.25 10.22Q97.99 10.22 97.64 10.48Q97.28 10.74 96.94 11.22Q96.59 11.71 96.29 12.40Q95.99 13.10 95.84 14.00L95.84 14.00Q96.10 13.81 96.40 13.61Q96.70 13.40 97.00 13.17L97.00 13.17Q97.93 12.46 98.29 11.92Q98.66 11.38 98.70 11.00L98.70 11.00Q98.74 10.59 98.61 10.41Q98.48 10.22 98.25 10.22ZM113.22 13.72L113.22 13.72Q112.92 14.15 112.45 14.79Q111.98 15.42 111.47 16.06Q110.97 16.69 110.48 17.22Q110 17.74 109.68 17.96L109.68 17.96Q109.46 18.09 109.18 18.17Q108.90 18.26 108.61 18.28Q108.32 18.30 108.07 18.25Q107.81 18.19 107.62 18.06L107.62 18.06Q107.42 17.91 107.29 17.63L107.29 17.63Q107.19 17.40 107.09 17.01Q106.99 16.63 107.01 16.04L107.01 16.04Q106.50 16.90 105.88 17.37Q105.25 17.83 104.69 18.04L104.69 18.04Q104.05 18.28 103.40 18.32L103.40 18.32Q103.10 18.32 102.76 18.12Q102.42 17.91 102.18 17.47Q101.94 17.03 101.88 16.33Q101.81 15.64 102.05 14.67L102.05 14.67Q102.35 13.36 103.01 12.29Q103.66 11.21 104.44 10.45Q105.21 9.69 105.96 9.30Q106.71 8.91 107.21 8.96L107.21 8.96Q107.79 9.06 108.15 9.30L108.15 9.30Q108.45 9.51 108.55 9.93Q108.65 10.35 108.20 11.04L108.20 11.04Q108.50 10.97 108.70 10.95Q108.90 10.93 109.01 10.93L109.01 10.93Q109.14 10.93 109.18 10.95L109.18 10.95Q109.21 11.00 109.21 11.14Q109.21 11.28 109.14 11.64Q109.08 12.01 108.95 12.63Q108.82 13.25 108.60 14.24L108.60 14.24Q108.56 14.43 108.53 14.59Q108.50 14.76 108.46 14.92Q108.43 15.08 108.39 15.29Q108.35 15.51 108.28 15.83L108.28 15.83Q108.26 16.02 108.27 16.25Q108.28 16.47 108.35 16.67Q108.41 16.86 108.55 16.98Q108.69 17.10 108.95 17.10L108.95 17.10Q109.16 17.10 109.51 16.83Q109.85 16.56 110.24 16.14Q110.62 15.72 111.04 15.22Q111.46 14.71 111.83 14.24Q112.19 13.77 112.48 13.40Q112.77 13.04 112.90 12.87L112.90 12.87Q113.07 12.67 113.24 12.64Q113.42 12.61 113.50 12.74Q113.59 12.87 113.53 13.12Q113.48 13.38 113.22 13.72ZM106.93 14.67L106.93 14.67Q107.04 14.24 107.19 13.66Q107.34 13.08 107.44 12.54Q107.55 12.01 107.60 11.65Q107.66 11.30 107.57 11.32L107.57 11.32Q107.46 11.34 107.34 11.38L107.34 11.38Q107.23 11.43 107.06 11.45Q106.88 11.47 106.71 11.51L106.71 11.51Q106.88 11.17 106.92 10.94Q106.95 10.72 106.93 10.59L106.93 10.59Q106.91 10.44 106.84 10.35L106.84 10.35Q106.61 10.16 106.01 10.66Q105.42 11.17 104.65 12.52L104.65 12.52Q104.33 13.08 104.13 13.71Q103.94 14.35 103.87 14.91Q103.79 15.46 103.83 15.88Q103.88 16.30 104.01 16.43L104.01 16.43Q104.24 16.67 104.54 16.66Q104.84 16.65 105.16 16.49Q105.47 16.32 105.78 16.07Q106.09 15.81 106.34 15.53Q106.58 15.25 106.75 15.01Q106.91 14.78 106.93 14.67ZM114.81 17.27L114.81 17.27Q114.94 17.36 115.15 17.36Q115.35 17.36 115.55 17.27Q115.76 17.18 115.94 17.03Q116.12 16.88 116.21 16.65L116.21 16.65Q116.29 16.41 116.21 15.97Q116.12 15.53 115.94 15.02Q115.76 14.52 115.54 14.00Q115.33 13.49 115.18 13.06L115.18 13.06Q115.05 12.74 114.96 12.46L114.96 12.46Q114.88 12.22 114.80 12.00Q114.73 11.77 114.68 11.68L114.68 11.68Q114.58 11.86 114.31 12.24Q114.04 12.63 113.73 13.05Q113.42 13.47 113.14 13.82Q112.86 14.18 112.75 14.30L112.75 14.30Q112.58 14.50 112.42 14.53Q112.26 14.56 112.15 14.47Q112.04 14.37 112.03 14.19Q112.02 14.00 112.19 13.75L112.19 13.75Q112.32 13.57 112.58 13.20Q112.84 12.82 113.09 12.42Q113.35 12.03 113.57 11.72Q113.78 11.40 113.80 11.34L113.80 11.34Q113.85 11.17 113.68 10.89Q113.52 10.61 113.63 10.24L113.63 10.24Q113.72 9.94 114.02 9.55Q114.32 9.15 114.73 8.83Q115.13 8.50 115.56 8.34Q115.99 8.18 116.34 8.35L116.34 8.35Q116.62 8.53 116.79 8.73Q116.96 8.93 116.92 9.15L116.92 9.15Q116.88 9.26 116.79 9.43L116.79 9.43Q116.70 9.60 116.53 9.85Q116.36 10.09 116.04 10.48L116.04 10.48Q116.10 10.97 116.22 11.38Q116.34 11.79 116.45 12.09L116.45 12.09Q116.57 12.46 116.72 12.76L116.72 12.76Q116.92 13.14 117.13 13.55Q117.35 13.96 117.52 14.36Q117.69 14.76 117.80 15.10Q117.91 15.44 117.86 15.68L117.86 15.68Q117.80 16.04 117.49 16.56Q117.18 17.08 116.71 17.56Q116.25 18.04 115.66 18.39Q115.07 18.73 114.43 18.73L114.43 18.73Q113.97 18.73 113.56 18.45Q113.14 18.17 112.85 17.80Q112.56 17.42 112.42 17.05Q112.28 16.69 112.38 16.50L112.38 16.50Q112.51 16.24 112.62 16.09Q112.73 15.94 112.94 15.74L112.94 15.74Q113.03 15.68 113.16 15.59L113.16 15.59Q113.27 15.53 113.46 15.46Q113.65 15.40 113.91 15.31L113.91 15.31Q114.13 15.98 114.30 16.36Q114.47 16.73 114.58 16.95L114.58 16.95Q114.71 17.18 114.81 17.27Z"/></svg></svg>